<svg width="28" height="20" viewBox="0 0 28 20" xmlns="http://www.w3.org/2000/svg"><path d="M1.943 11.727c1.833-2.266 2.579-3.42 2.921-4.675.726-2.657 1.787-4.957 4.997-6.34 3.209-1.386 5.526-.546 7.846.797 1.092.633 2.261.949 5.144 1.152 2.498.125 4.305.946 4.93 2.516 1.183 2.976-2.394 8.78-11.152 12.56-8.758 3.78-15.224 2.311-16.407-.663-.616-1.553.08-3.44 1.72-5.347zm8.835-8.706c-1.818.785-2.777 1.898-3.482 3.842 0 0-.391 1.107.59.425.979-.682 2.897-1.628 3.785-2.012.474-.203 2.917-1.131 4.051-1.371 1.134-.24.141-.74.141-.74-1.818-.853-3.266-.929-5.085-.144m4.905 12.335c3.753-1.62 6.626-3.71 8.346-5.868 1.263-1.584 1.692-2.755 1.453-3.356-.238-.602-1.317-.97-3.438-.959-2.62.013-6.017.828-9.485 2.324-3.606 1.557-6.652 3.577-8.491 5.565-1.353 1.464-1.813 2.392-1.573 2.992.239.602 1.337 1.113 3.304 1.303 2.681.258 6.13-.381 9.884-2.001m-.497-1.25c-3.155 1.36-6.03 1.666-6.422.679-.392-.986 1.847-2.89 5.002-4.252 3.155-1.362 6.03-1.666 6.422-.679.392.986-1.848 2.89-5.002 4.252" fill="#FFF" fill-rule="evenodd"/></svg>
